<svg xmlns="http://www.w3.org/2000/svg" viewBox="0 0 1280 640">
  <rect width="1280" height="640" fill="#0C0E12"/>
  <g transform="translate(760 140) scale(30)" shape-rendering="crispEdges">
    <rect x="2" y="0" width="1" height="1" fill="#A16A45"/>
    <rect x="3" y="0" width="1" height="1" fill="#A16A45"/>
    <rect x="8" y="0" width="1" height="1" fill="#A16A45"/>
    <rect x="9" y="0" width="1" height="1" fill="#A16A45"/>
    <rect x="1" y="1" width="1" height="1" fill="#A16A45"/>
    <rect x="2" y="1" width="1" height="1" fill="#A16A45"/>
    <rect x="3" y="1" width="1" height="1" fill="#A16A45"/>
    <rect x="4" y="1" width="1" height="1" fill="#A16A45"/>
    <rect x="5" y="1" width="1" height="1" fill="#A16A45"/>
    <rect x="6" y="1" width="1" height="1" fill="#A16A45"/>
    <rect x="7" y="1" width="1" height="1" fill="#A16A45"/>
    <rect x="8" y="1" width="1" height="1" fill="#A16A45"/>
    <rect x="9" y="1" width="1" height="1" fill="#A16A45"/>
    <rect x="10" y="1" width="1" height="1" fill="#A16A45"/>
    <rect x="1" y="2" width="1" height="1" fill="#A16A45"/>
    <rect x="2" y="2" width="1" height="1" fill="#A16A45"/>
    <rect x="3" y="2" width="1" height="1" fill="#A16A45"/>
    <rect x="4" y="2" width="1" height="1" fill="#A16A45"/>
    <rect x="5" y="2" width="1" height="1" fill="#A16A45"/>
    <rect x="6" y="2" width="1" height="1" fill="#A16A45"/>
    <rect x="7" y="2" width="1" height="1" fill="#A16A45"/>
    <rect x="8" y="2" width="1" height="1" fill="#A16A45"/>
    <rect x="9" y="2" width="1" height="1" fill="#A16A45"/>
    <rect x="10" y="2" width="1" height="1" fill="#A16A45"/>
    <rect x="0" y="3" width="1" height="1" fill="#A16A45"/>
    <rect x="1" y="3" width="1" height="1" fill="#A16A45"/>
    <rect x="2" y="3" width="1" height="1" fill="#A16A45"/>
    <rect x="3" y="3" width="1" height="1" fill="#3D2A1D"/>
    <rect x="4" y="3" width="1" height="1" fill="#A16A45"/>
    <rect x="5" y="3" width="1" height="1" fill="#A16A45"/>
    <rect x="6" y="3" width="1" height="1" fill="#A16A45"/>
    <rect x="7" y="3" width="1" height="1" fill="#A16A45"/>
    <rect x="8" y="3" width="1" height="1" fill="#3D2A1D"/>
    <rect x="9" y="3" width="1" height="1" fill="#A16A45"/>
    <rect x="10" y="3" width="1" height="1" fill="#A16A45"/>
    <rect x="11" y="3" width="1" height="1" fill="#A16A45"/>
    <rect x="0" y="4" width="1" height="1" fill="#A16A45"/>
    <rect x="1" y="4" width="1" height="1" fill="#A16A45"/>
    <rect x="2" y="4" width="1" height="1" fill="#A16A45"/>
    <rect x="3" y="4" width="1" height="1" fill="#A16A45"/>
    <rect x="4" y="4" width="1" height="1" fill="#EFDDC3"/>
    <rect x="5" y="4" width="1" height="1" fill="#EFDDC3"/>
    <rect x="6" y="4" width="1" height="1" fill="#EFDDC3"/>
    <rect x="7" y="4" width="1" height="1" fill="#EFDDC3"/>
    <rect x="8" y="4" width="1" height="1" fill="#A16A45"/>
    <rect x="9" y="4" width="1" height="1" fill="#A16A45"/>
    <rect x="10" y="4" width="1" height="1" fill="#A16A45"/>
    <rect x="11" y="4" width="1" height="1" fill="#A16A45"/>
    <rect x="0" y="5" width="1" height="1" fill="#A16A45"/>
    <rect x="1" y="5" width="1" height="1" fill="#A16A45"/>
    <rect x="2" y="5" width="1" height="1" fill="#EFDDC3"/>
    <rect x="3" y="5" width="1" height="1" fill="#EFDDC3"/>
    <rect x="4" y="5" width="1" height="1" fill="#EFDDC3"/>
    <rect x="5" y="5" width="1" height="1" fill="#3D2A1D"/>
    <rect x="6" y="5" width="1" height="1" fill="#3D2A1D"/>
    <rect x="7" y="5" width="1" height="1" fill="#EFDDC3"/>
    <rect x="8" y="5" width="1" height="1" fill="#EFDDC3"/>
    <rect x="9" y="5" width="1" height="1" fill="#EFDDC3"/>
    <rect x="10" y="5" width="1" height="1" fill="#A16A45"/>
    <rect x="11" y="5" width="1" height="1" fill="#A16A45"/>
    <rect x="1" y="6" width="1" height="1" fill="#A16A45"/>
    <rect x="2" y="6" width="1" height="1" fill="#A16A45"/>
    <rect x="3" y="6" width="1" height="1" fill="#EFDDC3"/>
    <rect x="4" y="6" width="1" height="1" fill="#EFDDC3"/>
    <rect x="5" y="6" width="1" height="1" fill="#EFDDC3"/>
    <rect x="6" y="6" width="1" height="1" fill="#EFDDC3"/>
    <rect x="7" y="6" width="1" height="1" fill="#EFDDC3"/>
    <rect x="8" y="6" width="1" height="1" fill="#EFDDC3"/>
    <rect x="9" y="6" width="1" height="1" fill="#A16A45"/>
    <rect x="10" y="6" width="1" height="1" fill="#A16A45"/>
    <rect x="1" y="7" width="1" height="1" fill="#A16A45"/>
    <rect x="2" y="7" width="1" height="1" fill="#A16A45"/>
    <rect x="3" y="7" width="1" height="1" fill="#A16A45"/>
    <rect x="4" y="7" width="1" height="1" fill="#A16A45"/>
    <rect x="5" y="7" width="1" height="1" fill="#A16A45"/>
    <rect x="6" y="7" width="1" height="1" fill="#A16A45"/>
    <rect x="7" y="7" width="1" height="1" fill="#A16A45"/>
    <rect x="8" y="7" width="1" height="1" fill="#A16A45"/>
    <rect x="9" y="7" width="1" height="1" fill="#A16A45"/>
    <rect x="10" y="7" width="1" height="1" fill="#A16A45"/>
    <rect x="1" y="8" width="1" height="1" fill="#A16A45"/>
    <rect x="2" y="8" width="1" height="1" fill="#A16A45"/>
    <rect x="3" y="8" width="1" height="1" fill="#A16A45"/>
    <rect x="4" y="8" width="1" height="1" fill="#A16A45"/>
    <rect x="5" y="8" width="1" height="1" fill="#FFC24D"/>
    <rect x="6" y="8" width="1" height="1" fill="#F59E0B"/>
    <rect x="7" y="8" width="1" height="1" fill="#A16A45"/>
    <rect x="8" y="8" width="1" height="1" fill="#A16A45"/>
    <rect x="9" y="8" width="1" height="1" fill="#A16A45"/>
    <rect x="10" y="8" width="1" height="1" fill="#A16A45"/>
    <rect x="2" y="9" width="1" height="1" fill="#A16A45"/>
    <rect x="3" y="9" width="1" height="1" fill="#7A4E32"/>
    <rect x="4" y="9" width="1" height="1" fill="#FFC24D"/>
    <rect x="5" y="9" width="1" height="1" fill="#F59E0B"/>
    <rect x="6" y="9" width="1" height="1" fill="#F59E0B"/>
    <rect x="7" y="9" width="1" height="1" fill="#F59E0B"/>
    <rect x="8" y="9" width="1" height="1" fill="#7A4E32"/>
    <rect x="9" y="9" width="1" height="1" fill="#A16A45"/>
    <rect x="5" y="10" width="1" height="1" fill="#F59E0B"/>
    <rect x="6" y="10" width="1" height="1" fill="#F59E0B"/>
  </g>
  <polygon points="158,228 176,246 158,264 140,246" fill="#F59E0B"/>
  <text x="196" y="246" dominant-baseline="central" font-family="ui-monospace, 'SF Mono', Menlo, 'Cascadia Mono', Consolas, monospace" font-size="88" font-weight="700" fill="#FBF8F3">openswap</text>
  <text x="140" y="330" dominant-baseline="central" font-family="ui-monospace, 'SF Mono', Menlo, 'Cascadia Mono', Consolas, monospace" font-size="32" fill="#9AA3AD">open-source crosschain swaps</text>
  <text x="140" y="376" dominant-baseline="central" font-family="ui-monospace, 'SF Mono', Menlo, 'Cascadia Mono', Consolas, monospace" font-size="32" fill="#9AA3AD">right from your terminal</text>
  <rect x="140" y="432" width="400" height="68" rx="12" fill="#14171C" stroke="#262B33" stroke-width="2"/>
  <text x="164" y="466" dominant-baseline="central" font-family="ui-monospace, 'SF Mono', Menlo, 'Cascadia Mono', Consolas, monospace" font-size="30"><tspan fill="#6B7280">$ </tspan><tspan fill="#F59E0B" font-weight="700">npx openswap</tspan></text>
  <text x="140" y="552" dominant-baseline="central" font-family="ui-monospace, 'SF Mono', Menlo, 'Cascadia Mono', Consolas, monospace" font-size="24" fill="#6B7280">by LeoDex</text>
</svg>
